<svg xmlns="http://www.w3.org/2000/svg" data-name="Layer 1" viewBox="0 0 128 128"><path fill="#e1ebf4" d="M33 13.66663V45.32025c.07031-.00183.1394-.01019.21-.01019a8.04836 8.04836 0 0 1 2.07324.26953L45.2793 35.5835a8.05767 8.05767 0 0 1-.26953-2.07373 7.93859 7.93859 0 0 1 2.3418-5.64844l2.83008-2.83008a8.00829 8.00829 0 0 1 11.31738.00049L75.6377 39.17188a7.96728 7.96728 0 0 1 1.73474 2.58722 11.03173 11.03173 0 0 1 .72717-1.75812 8.334 8.334 0 0 1-.90527-5.79785 8.50222 8.50222 0 0 1 3.38086-4.85547 8.39411 8.39411 0 0 1 1.77637-5.59912A8.56317 8.56317 0 0 1 87.5 20.85889a8.50778 8.50778 0 0 1 4.0332-4.2915 7.77482 7.77482 0 0 1 3.36426-.74365 10.61543 10.61543 0 0 1 2.55664.33936A8.71126 8.71126 0 0 1 103 14c.2301 0 .44806.02014.66669.039V10s-.81116-7.33337-13.65558-7.33337-62.1778-.83331-62.1778-.83331S33 4.66663 33 13.66663zM103.66669 78.07489L103 77.60693 98.31738 80.894a5.98764 5.98764 0 0 1-3.21533 1.0835A9.99916 9.99916 0 0 1 80.9541 96.11133L54.916 70.06494a7.96766 7.96766 0 0 1-1.9082 3.04395L50.629 75.4873A7.98946 7.98946 0 0 1 54 82v2.5835A8.01238 8.01238 0 0 1 59 92v4a8.00917 8.00917 0 0 1-8 8H33v16.16663s3.45837 8.67438 10.5 5.66669 6.60474-15.16669 6.60474-15.16669h53.562z"/><path fill="#2d4356" d="M94.5,0h-70A10.51152,10.51152,0,0,0,14,10.5V21a2.00591,2.00591,0,0,0,2,2H31V45.63a7.77052,7.77052,0,0,1,2.21-.32,7.63108,7.63108,0,0,1,1.79.22V10.5A10.42962,10.42962,0,0,0,32.73,4H94.5a6.51263,6.51263,0,0,1,6.5,6.5v3.98a4.40683,4.40683,0,0,1,4,0V10.5A10.51152,10.51152,0,0,0,94.5,0ZM31,19H18V10.5a6.5,6.5,0,0,1,13,0Z"/><path fill="#81d9e3" d="M31,10.5V19H18V10.5a6.5,6.5,0,0,1,13,0Z"/><path fill="#2d4356" d="M51,88H50V82a3.99887,3.99887,0,0,0-4-4H12a3.99887,3.99887,0,0,0-4,4v6H7a3.99887,3.99887,0,0,0-4,4v4a3.99891,3.99891,0,0,0,4,4H51a3.99891,3.99891,0,0,0,4-4V92A3.99887,3.99887,0,0,0,51,88ZM12,82H46v6H12ZM51,96H7V92H51Z"/><rect width="44" height="4" x="7" y="92" fill="#ffdb80"/><rect width="34" height="6" x="12" y="82" fill="#d68751"/><path fill="#2d4356" d="M123.43,40.01a5.6435,5.6435,0,0,1,.54-1.15,5.212,5.212,0,0,0,.94-3.75,5.37744,5.37744,0,0,0-2.56-3.05,6.86457,6.86457,0,0,1-.94-.72A4.96923,4.96923,0,0,1,121.4,30.1a5.24367,5.24367,0,0,0-.84-3.81,5.46912,5.46912,0,0,0-3.62-1.65,7.13115,7.13115,0,0,1-1.19-.25,5.29678,5.29678,0,0,1-.55-1.1,5.37025,5.37025,0,0,0-2.45-3.11,5.518,5.518,0,0,0-3.97.06,11.52416,11.52416,0,0,1-1.2.27,4.97076,4.97076,0,0,1-.96-.74005,4.58686,4.58686,0,0,0-7.24,0,6.33157,6.33157,0,0,1-.91.73,5.93291,5.93291,0,0,1-1.25-.26,5.518,5.518,0,0,0-3.97-.06,5.37025,5.37025,0,0,0-2.45,3.11,6.83965,6.83965,0,0,1-.51,1.07,5.6644,5.6644,0,0,1-1.23.28,5.46912,5.46912,0,0,0-3.62,1.65,5.179,5.179,0,0,0-.83,3.81,6.68934,6.68934,0,0,1,0,1.2,5.59745,5.59745,0,0,1-.96.76,5.41489,5.41489,0,0,0-2.56,3.05,5.212,5.212,0,0,0,.94,3.75,6.10994,6.10994,0,0,1,.54,1.13,5.645,5.645,0,0,1-.54,1.15A5.2251,5.2251,0,0,0,81.09,44.9a5.38829,5.38829,0,0,0,2.56,3.04,6.86025,6.86025,0,0,1,.94.72A4.9693,4.9693,0,0,1,84.6,49.9a5.24361,5.24361,0,0,0,.84,3.81,5.46949,5.46949,0,0,0,3.62,1.65,7.12487,7.12487,0,0,1,1.19.25,5.296,5.296,0,0,1,.55,1.1,5.95985,5.95985,0,0,0,1.99,2.84V76a1.97833,1.97833,0,0,0,1.11,1.78,2.07254,2.07254,0,0,0,2.12-.16l6.98-4.9,6.98,4.9a2.05363,2.05363,0,0,0,1.19.38,2.0196,2.0196,0,0,0,.93-.22A1.97833,1.97833,0,0,0,113.21,76V59.55a5.95985,5.95985,0,0,0,1.99-2.84,6.83842,6.83842,0,0,1,.51-1.06995,5.66078,5.66078,0,0,1,1.23-.28,5.46949,5.46949,0,0,0,3.62-1.65,5.17892,5.17892,0,0,0,.83-3.81,6.68865,6.68865,0,0,1,0-1.2,5.59446,5.59446,0,0,1,.96-.76,5.41508,5.41508,0,0,0,2.56-3.05,5.2119,5.2119,0,0,0-.94-3.75A6.11178,6.11178,0,0,1,123.43,40.01ZM109.13,72.1l-4.94-3.47a2.09868,2.09868,0,0,0-2.38,0L96.87,72.1V59.86a3.58726,3.58726,0,0,0,.35-.1,7.64241,7.64241,0,0,1,1.2-.27,4.97,4.97,0,0,1,.96.74,4.58677,4.58677,0,0,0,7.24,0,6.33024,6.33024,0,0,1,.91-.73,6.641,6.641,0,0,1,1.25.26,3.58725,3.58725,0,0,0,.35.1Zm11.26-29.04a7.70759,7.70759,0,0,1,.48.95,9.819,9.819,0,0,1-.89.67,6.35105,6.35105,0,0,0-2.26,2.26,6.16976,6.16976,0,0,0-.41,3.16,8.12609,8.12609,0,0,1,.02,1.09,9.44179,9.44179,0,0,1-1.09.23,6.48092,6.48092,0,0,0-3.06,1.09,6.09191,6.09191,0,0,0-1.75,2.66,9.33681,9.33681,0,0,1-.47,1,8.53406,8.53406,0,0,1-1.07-.25,6.606,6.606,0,0,0-3.25-.32,6.38788,6.38788,0,0,0-2.74,1.64,6.91359,6.91359,0,0,1-.9.72,6.91359,6.91359,0,0,1-.9-.72,6.38788,6.38788,0,0,0-2.74-1.64,4.20257,4.20257,0,0,0-.93-.1,8.59842,8.59842,0,0,0-2.32.42,10.75683,10.75683,0,0,1-1.07.25,9.33681,9.33681,0,0,1-.47-1,6.26956,6.26956,0,0,0-1.75-2.67,6.59045,6.59045,0,0,0-3.06-1.09,9.10483,9.10483,0,0,1-1.09-.22,8.12609,8.12609,0,0,1,.02-1.09,6.179,6.179,0,0,0-.42-3.16,6.32633,6.32633,0,0,0-2.25-2.26,8.28822,8.28822,0,0,1-.89-.68,8.396,8.396,0,0,1,.48-.94A6.34448,6.34448,0,0,0,86.66,40a6.34426,6.34426,0,0,0-1.05-3.06,7.7119,7.7119,0,0,1-.48-.95,9.819,9.819,0,0,1,.89-.67,6.35154,6.35154,0,0,0,2.26-2.26,6.16991,6.16991,0,0,0,.41-3.16,8.12519,8.12519,0,0,1-.02-1.09,9.44129,9.44129,0,0,1,1.09-.23,6.48148,6.48148,0,0,0,3.06-1.09,6.09209,6.09209,0,0,0,1.75-2.66,9.34238,9.34238,0,0,1,.47-1,8.55561,8.55561,0,0,1,1.07.25,6.50339,6.50339,0,0,0,3.25.32,6.38778,6.38778,0,0,0,2.74-1.64,6.91433,6.91433,0,0,1,.9-.72,6.91433,6.91433,0,0,1,.9.72,6.38778,6.38778,0,0,0,2.74,1.64,6.606,6.606,0,0,0,3.25-.32,10.79113,10.79113,0,0,1,1.07-.25,9.34238,9.34238,0,0,1,.47,1,6.26974,6.26974,0,0,0,1.75,2.67,6.591,6.591,0,0,0,3.06,1.09,9.10425,9.10425,0,0,1,1.09.22,8.12519,8.12519,0,0,1-.02,1.09,6.17918,6.17918,0,0,0,.42,3.16,6.32682,6.32682,0,0,0,2.25,2.26,8.28822,8.28822,0,0,1,.89.68,8.40124,8.40124,0,0,1-.48.94A6.34426,6.34426,0,0,0,119.34,40,6.30787,6.30787,0,0,0,120.39,43.06Z"/><path fill="#fc785e" d="M109.13,59.86V72.1l-4.94-3.47a2.09868,2.09868,0,0,0-2.38,0L96.87,72.1V59.86a3.58726,3.58726,0,0,0,.35-.1,7.64241,7.64241,0,0,1,1.2-.27,4.97,4.97,0,0,1,.96.74,4.58677,4.58677,0,0,0,7.24,0,6.33024,6.33024,0,0,1,.91-.73,6.641,6.641,0,0,1,1.25.26A3.58725,3.58725,0,0,0,109.13,59.86Z"/><path fill="#81d9e3" d="M119.34,40a6.34426,6.34426,0,0,1,1.05-3.06,8.40124,8.40124,0,0,0,.48-.94,8.28822,8.28822,0,0,0-.89-.68,6.32682,6.32682,0,0,1-2.25-2.26,6.17918,6.17918,0,0,1-.42-3.16,8.12519,8.12519,0,0,0,.02-1.09,9.10425,9.10425,0,0,0-1.09-.22,6.591,6.591,0,0,1-3.06-1.09,6.26974,6.26974,0,0,1-1.75-2.67,9.34238,9.34238,0,0,0-.47-1,10.79113,10.79113,0,0,0-1.07.25,6.606,6.606,0,0,1-3.25.32,6.38778,6.38778,0,0,1-2.74-1.64,6.91433,6.91433,0,0,0-.9-.72,6.91433,6.91433,0,0,0-.9.72,6.38778,6.38778,0,0,1-2.74,1.64,6.50339,6.50339,0,0,1-3.25-.32,8.55561,8.55561,0,0,0-1.07-.25,9.34238,9.34238,0,0,0-.47,1,6.09209,6.09209,0,0,1-1.75,2.66,6.48148,6.48148,0,0,1-3.06,1.09,9.44129,9.44129,0,0,0-1.09.23,8.12519,8.12519,0,0,0,.02,1.09,6.16991,6.16991,0,0,1-.41,3.16,6.35154,6.35154,0,0,1-2.26,2.26,9.819,9.819,0,0,0-.89.67,7.7119,7.7119,0,0,0,.48.95A6.34426,6.34426,0,0,1,86.66,40a6.34448,6.34448,0,0,1-1.05,3.06,8.396,8.396,0,0,0-.48.94,8.28822,8.28822,0,0,0,.89.68,6.32633,6.32633,0,0,1,2.25,2.26,6.179,6.179,0,0,1,.42,3.16,8.12609,8.12609,0,0,0-.02,1.09,9.10483,9.10483,0,0,0,1.09.22,6.59045,6.59045,0,0,1,3.06,1.09,6.26956,6.26956,0,0,1,1.75,2.67,9.33681,9.33681,0,0,0,.47,1,10.75683,10.75683,0,0,0,1.07-.25,8.59842,8.59842,0,0,1,2.32-.42,4.20257,4.20257,0,0,1,.93.1,6.38788,6.38788,0,0,1,2.74,1.64,6.91359,6.91359,0,0,0,.9.72,6.91359,6.91359,0,0,0,.9-.72,6.38788,6.38788,0,0,1,2.74-1.64,6.606,6.606,0,0,1,3.25.32,8.53406,8.53406,0,0,0,1.07.25,9.33681,9.33681,0,0,0,.47-1,6.09191,6.09191,0,0,1,1.75-2.66,6.48092,6.48092,0,0,1,3.06-1.09,9.44179,9.44179,0,0,0,1.09-.23,8.12609,8.12609,0,0,0-.02-1.09,6.16976,6.16976,0,0,1,.41-3.16,6.35105,6.35105,0,0,1,2.26-2.26,9.819,9.819,0,0,0,.89-.67,7.70759,7.70759,0,0,0-.48-.95A6.30787,6.30787,0,0,1,119.34,40ZM103,53a13,13,0,1,1,13-13A13.01246,13.01246,0,0,1,103,53Z"/><path fill="#2d4356" d="M103,27a13,13,0,1,0,13,13A13.01242,13.01242,0,0,0,103,27Zm0,22a9,9,0,1,1,9-9A9.01357,9.01357,0,0,1,103,49Z"/><path fill="#fff" d="M112,40a9,9,0,1,1-9-9A9.01357,9.01357,0,0,1,112,40Z"/><path fill="#e1ebf4" d="M72.80469,53.313a7.85768,7.85768,0,0,1-4.15625,2.2085L88.79,75.66309V61.24316a10.38417,10.38417,0,0,1-1.28711-2.10205,8.59939,8.59939,0,0,1-5.17383-2.91748,8.36823,8.36823,0,0,1-1.75879-5.57373,9.08713,9.08713,0,0,1-2.92444-3.52332,7.94733,7.94733,0,0,1-2.00818,3.36267Z"/><path fill="#2d4356" d="M92.25,84.78,61.14,53.67l3.18-3.19a3.98359,3.98359,0,0,0,5.66,0l2.83-2.82a4.00758,4.00758,0,0,0,0-5.66L58.67,27.86a4.00758,4.00758,0,0,0-5.66,0l-2.83,2.83a3.99551,3.99551,0,0,0,0,5.65L36.04,50.48a4.00762,4.00762,0,0,0-5.66,0l-2.83,2.83a4.00762,4.00762,0,0,0,0,5.66L41.7,73.11a3.99551,3.99551,0,0,0,5.65,0l2.83-2.83a3.99548,3.99548,0,0,0,0-5.65l2.48-2.48L83.77,93.27a5.9998,5.9998,0,0,0,8.48-8.49ZM55.84,30.69,69.98,44.83l-2.83,2.83L53.01,33.51ZM44.53,70.29,30.38,56.14l2.83-2.83L47.35,67.46ZM47.35,61.8l-8.48-8.49L53.01,39.17l8.49,8.49ZM89.43,90.44a2.00388,2.00388,0,0,1-2.83,0L55.49,59.32l2.82-2.83L89.43,87.61A2.00377,2.00377,0,0,1,89.43,90.44Z"/><path fill="#d68751" d="M89.43,90.44a2.00388,2.00388,0,0,1-2.83,0L55.49,59.32l2.82-2.83L89.43,87.61A2.00377,2.00377,0,0,1,89.43,90.44Z"/><rect width="3.999" height="20" x="59.496" y="29.172" fill="#d68751" transform="rotate(-45.001 61.495 39.172)"/><rect width="3.999" height="20.008" x="36.868" y="51.796" fill="#d68751" transform="rotate(-45.102 38.868 61.8)"/><rect width="20.001" height="12.003" x="40.182" y="44.483" fill="#fc785e" transform="rotate(-44.98 50.182 50.485)"/><path fill="#2d4356" d="M120,109H105V79.08L103,77.64,101,79.08V109H50a2.00587,2.00587,0,0,0-2,2v6.5a6.5,6.5,0,0,1-13,0V104H31v13.5A10.51156,10.51156,0,0,0,41.5,128h70A10.51156,10.51156,0,0,0,122,117.5V111A2.00587,2.00587,0,0,0,120,109Zm-2,8.5a6.51267,6.51267,0,0,1-6.5,6.5H49.74A10.42169,10.42169,0,0,0,52,117.5V113h66Z"/><path fill="#81d9e3" d="M118,113v4.5a6.51267,6.51267,0,0,1-6.5,6.5H49.74A10.42169,10.42169,0,0,0,52,117.5V113Z"/><polygon fill="#2d4356" points="35 74 35 72.072 31 68.072 31 74 35 74"/><path fill="#fff" d="M101,10.5v2A6.51263,6.51263,0,0,0,94.5,6H33.97a9.816,9.816,0,0,0-1.24-2H94.5A6.51263,6.51263,0,0,1,101,10.5Z" opacity=".5"/><rect width="13" height="2" x="18" y="17" fill="#0f423c" opacity=".25"/><path fill="#e8fbfc" d="M31,10.5v2a6.5,6.5,0,0,0-13,0v-2a6.5,6.5,0,0,1,13,0Z" opacity=".3"/><path fill="#9fa5aa" d="M48,115.5v2a6.5,6.5,0,0,1-13,0v-2a6.5,6.5,0,0,0,13,0Z" opacity=".5"/><path fill="#0f423c" d="M118,115.5v2a6.51267,6.51267,0,0,1-6.5,6.5H49.74a9.81764,9.81764,0,0,0,1.24-2H111.5A6.51267,6.51267,0,0,0,118,115.5Z" opacity=".25"/><rect width="66" height="2" x="52" y="113" fill="#e8fbfc" opacity=".3"/><path fill="#0f423c" d="M120.87 44.01a9.819 9.819 0 0 1-.89.67 6.35105 6.35105 0 0 0-2.26 2.26 4.42666 4.42666 0 0 0-.4 1.38c0-.08-.01-.15-.01-.22a6.16976 6.16976 0 0 1 .41-3.16 6.35105 6.35105 0 0 1 2.26-2.26c.04-.03.09-.06.14-.1q.135.25507.27.48A7.70759 7.70759 0 0 1 120.87 44.01zM117.33 51.19a9.44179 9.44179 0 0 1-1.09.23 6.48092 6.48092 0 0 0-3.06 1.09 6.09191 6.09191 0 0 0-1.75 2.66 9.33681 9.33681 0 0 1-.47 1 8.53406 8.53406 0 0 1-1.07-.25 6.606 6.606 0 0 0-3.25-.32 6.38788 6.38788 0 0 0-2.74 1.64 6.91359 6.91359 0 0 1-.9.72 6.91359 6.91359 0 0 1-.9-.72 6.38788 6.38788 0 0 0-2.74-1.64 4.20257 4.20257 0 0 0-.93-.1 8.59842 8.59842 0 0 0-2.32.42 10.75683 10.75683 0 0 1-1.07.25 9.33681 9.33681 0 0 1-.47-1 6.26956 6.26956 0 0 0-1.75-2.67 6.59045 6.59045 0 0 0-3.06-1.09 9.10483 9.10483 0 0 1-1.09-.22 8.12609 8.12609 0 0 1 .02-1.09c.01-.29.03-.59.03-.9a9.55489 9.55489 0 0 0 1.04.21 6.59045 6.59045 0 0 1 3.06 1.09 6.26956 6.26956 0 0 1 1.75 2.67 9.33681 9.33681 0 0 0 .47 1 10.75683 10.75683 0 0 0 1.07-.25 8.59842 8.59842 0 0 1 2.32-.42 4.20257 4.20257 0 0 1 .93.1 6.38788 6.38788 0 0 1 2.74 1.64 6.91359 6.91359 0 0 0 .9.72 6.91359 6.91359 0 0 0 .9-.72 6.38788 6.38788 0 0 1 2.74-1.64 6.606 6.606 0 0 1 3.25.32 8.53406 8.53406 0 0 0 1.07.25 9.33681 9.33681 0 0 0 .47-1 6.09191 6.09191 0 0 1 1.75-2.66 6.48092 6.48092 0 0 1 3.06-1.09 10.02209 10.02209 0 0 0 1.04-.22q0 .465.03.9A8.12609 8.12609 0 0 1 117.33 51.19z" opacity=".25"/><path fill="#e8fbfc" d="M117.31,29.9c-.01.29-.03.59-.03.9a9.55451,9.55451,0,0,0-1.04-.21,6.591,6.591,0,0,1-3.06-1.09,6.26974,6.26974,0,0,1-1.75-2.67,9.34238,9.34238,0,0,0-.47-1,10.79113,10.79113,0,0,0-1.07.25,6.606,6.606,0,0,1-3.25.32,6.38778,6.38778,0,0,1-2.74-1.64,6.91433,6.91433,0,0,0-.9-.72,6.91433,6.91433,0,0,0-.9.72,6.38778,6.38778,0,0,1-2.74,1.64,6.50339,6.50339,0,0,1-3.25-.32,8.55561,8.55561,0,0,0-1.07-.25,9.34238,9.34238,0,0,0-.47,1,6.09209,6.09209,0,0,1-1.75,2.66,6.48148,6.48148,0,0,1-3.06,1.09,10.02185,10.02185,0,0,0-1.04.22q0-.465-.03-.9a8.12519,8.12519,0,0,1-.02-1.09,9.44129,9.44129,0,0,1,1.09-.23,6.48148,6.48148,0,0,0,3.06-1.09,6.09209,6.09209,0,0,0,1.75-2.66,9.34238,9.34238,0,0,1,.47-1,8.55561,8.55561,0,0,1,1.07.25,6.50339,6.50339,0,0,0,3.25.32,6.38778,6.38778,0,0,0,2.74-1.64,6.91433,6.91433,0,0,1,.9-.72,6.91433,6.91433,0,0,1,.9.72,6.38778,6.38778,0,0,0,2.74,1.64,6.606,6.606,0,0,0,3.25-.32,10.79113,10.79113,0,0,1,1.07-.25,9.34238,9.34238,0,0,1,.47,1,6.26974,6.26974,0,0,0,1.75,2.67,6.591,6.591,0,0,0,3.06,1.09,9.10425,9.10425,0,0,1,1.09.22A8.12519,8.12519,0,0,1,117.31,29.9Z" opacity=".3"/><rect width="34" height="2" x="12" y="82" fill="#e5d0c3" opacity=".3"/><rect width="44" height="2" x="7" y="94" fill="#ad9359" opacity=".45"/><path fill="#0f423c" d="M88.69,48.1c0,.08-.01.16-.01.24a4.304,4.304,0,0,0-.41-1.4,6.32633,6.32633,0,0,0-2.25-2.26,8.28822,8.28822,0,0,1-.89-.68,8.396,8.396,0,0,1,.48-.94c.09-.16.18-.32.27-.49a1.10039,1.10039,0,0,0,.14.11,6.32633,6.32633,0,0,1,2.25,2.26A6.179,6.179,0,0,1,88.69,48.1Z" opacity=".25"/><path fill="#72492d" d="M89.43,90.44a2.00388,2.00388,0,0,1-2.83,0L55.49,59.32l1-1L86.6,88.44a2.00388,2.00388,0,0,0,2.83,0,1.70448,1.70448,0,0,0,.31-.41A1.988,1.988,0,0,1,89.43,90.44Z" opacity=".4"/><polygon fill="#f9dbd7" points="61.5 47.66 60.5 48.66 53.01 41.17 39.87 54.31 38.87 53.31 53.01 39.17 61.5 47.66" opacity=".3"/><polygon fill="#a54b3f" points="61.5 47.66 47.35 61.8 38.87 53.31 39.87 52.31 47.35 59.8 60.5 46.66 61.5 47.66" opacity=".5"/><polygon fill="#72492d" points="47.35 67.46 44.53 70.29 30.38 56.14 31.38 55.14 44.53 68.29 46.35 66.46 47.35 67.46" opacity=".4"/><polygon fill="#e5d0c3" points="69.98 44.83 68.98 45.83 55.84 32.69 54.01 34.51 53.01 33.51 55.84 30.69 69.98 44.83" opacity=".3"/><path fill="#a54b3f" d="M109.13,70.1v2l-4.94-3.47a2.09868,2.09868,0,0,0-2.38,0L96.87,72.1v-2l4.94-3.47a2.09868,2.09868,0,0,1,2.38,0Z" opacity=".5"/></svg>