<svg xmlns="http://www.w3.org/2000/svg" viewBox="0 0 48 48"><path fill="#cc8679" d="M41.2862,29.9008,33,35H21a1,1,0,0,1-1-1h0a1,1,0,0,1,1-1h3.8931a2.0744,2.0744,0,0,0,2.08-1.6642A2.0013,2.0013,0,0,0,25,29H10V42l7.1554,3.5777A4,4,0,0,0,18.9443,46h7.8445a4,4,0,0,0,2.2189-.6718L44.6592,34.8939a3.0156,3.0156,0,0,0,1.2094-3.3916A2.9717,2.9717,0,0,0,41.2862,29.9008Z"/><rect width="8" height="20" x="2" y="26" fill="#505572" rx="2" ry="2"/><path fill="#bf7267" d="M43.556,29.4349A2.98,2.98,0,0,1,44,31.0158a3.0112,3.0112,0,0,1-1.3408,2.5054L27.0077,43.9555a4,4,0,0,1-2.2188.6718H16.9443a4,4,0,0,1-1.7889-.4223L10,41.6273V42l7.1554,3.5777A4,4,0,0,0,18.9443,46h7.8446a4,4,0,0,0,2.2188-.6718L44.6592,34.8939a3.0084,3.0084,0,0,0-1.1031-5.4589Z"/><circle cx="6" cy="31" r="1" fill="#8491c1"/><path fill="#4ac6b7" d="M26,7H22s-7,4-7,11v3a4,4,0,0,0,4,4H29a4,4,0,0,0,4-4V18C33,11,26,7,26,7Z"/><path fill="#505572" d="M25,20H22a1,1,0,0,1,0-2h3V17H23a2.0023,2.0023,0,0,1-2-2V14a2.0023,2.0023,0,0,1,2-2h3a1,1,0,0,1,0,2H23v1h2a2.0023,2.0023,0,0,1,2,2v1A2.0023,2.0023,0,0,1,25,20Z"/><path fill="#505572" d="M24 14a1 1 0 0 1-1-1V12a1 1 0 0 1 2 0v1A1 1 0 0 1 24 14zM24 21a1 1 0 0 1-1-1V19a1 1 0 0 1 2 0v1A1 1 0 0 1 24 21z"/><path fill="#29a892" d="M28,3s-1-1-4-1-4,1-4,1l2,4h4Z"/></svg>