<svg xmlns="http://www.w3.org/2000/svg" enable-background="new 0 0 504 486.178" viewBox="0 0 504 486.178"><ellipse cx="39.43" cy="368.949" fill="#ffc05a" rx="35.43" ry="43.06"/><path fill="#ffc05a" d="M50.65 191.499c5.97 0 10.81 4.84 10.81 10.81s-4.84 10.81-10.81 10.81c-5.98 0-10.82-4.84-10.82-10.81S44.67 191.499 50.65 191.499zM474.04 236.559c5.97 0 10.81 4.84 10.81 10.81s-4.84 10.81-10.81 10.81-10.82-4.84-10.82-10.81S468.07 236.559 474.04 236.559zM383.31 57.699c5.97 0 10.81 4.84 10.81 10.81s-4.84 10.81-10.81 10.81c-5.98 0-10.82-4.84-10.82-10.81S377.33 57.699 383.31 57.699zM434.16 93.279c1.51 22.71 13.32 37.06 35.42 43.06-22.1 6-33.91 20.35-35.42 43.06-1.52-22.71-13.33-37.06-35.43-43.06C420.83 130.339 432.64 115.989 434.16 93.279z"/><path fill="#e7f2f1" d="M342.04,307.029V3.999H92.54v438.98c0,21.65,17.55,39.2,39.2,39.2h249.5L342.04,307.029z"/><path fill="#d6eae8" d="M342.04,307.029v135.95c0,21.65,17.55,39.2,39.2,39.2c21.66,0,39.21-17.55,39.21-39.2v-29.89
			l36.2-106.06H342.04z"/><path fill="#6fceae" d="M296.32,161.729v3.89c0,10.09-8.17,18.26-18.26,18.26H156.53c-10.09,0-18.27-8.17-18.27-18.26
			v-3.89c0-10.09,8.18-18.26,18.27-18.26h121.53C288.15,143.469,296.32,151.639,296.32,161.729z"/><path fill="#c3ddda" d="M492.85,343.229v69.86h-72.4v-69.86c0-19.99,16.2-36.2,36.2-36.2
			C476.64,307.029,492.85,323.239,492.85,343.229z"/><path fill="#3a322b" d="M456.647,303.032H346.043V4c0-2.209-1.791-4-4-4h-249.5c-2.209,0-4,1.791-4,4v438.976
			c0,23.821,19.38,43.202,43.201,43.202h249.501c23.821,0,43.201-19.381,43.201-43.202v-25.884h68.402c2.209,0,4-1.791,4-4v-69.859
			C496.848,321.066,478.814,303.032,456.647,303.032z M131.744,478.178c-19.41,0-35.201-15.792-35.201-35.202V8h241.5v434.976
			c0,14.505,7.185,27.363,18.183,35.202H131.744z M416.446,442.976c0,19.41-15.791,35.202-35.201,35.202
			s-35.202-15.792-35.202-35.202V311.032h86.562c-9.803,7.338-16.16,19.041-16.16,32.2V442.976z M488.848,409.092h-64.402v-65.859
			c0-17.755,14.445-32.2,32.201-32.2c17.755,0,32.201,14.445,32.201,32.2V409.092z"/><path fill="#3a322b" d="M156.525 187.882h121.536c12.275 0 22.262-9.986 22.262-22.262v-3.891c0-12.275-9.987-22.262-22.262-22.262H156.525c-12.275 0-22.262 9.986-22.262 22.262v3.891C134.264 177.896 144.25 187.882 156.525 187.882zM142.264 161.729c0-7.864 6.398-14.262 14.262-14.262h121.536c7.864 0 14.262 6.397 14.262 14.262v3.891c0 7.864-6.398 14.262-14.262 14.262H156.525c-7.864 0-14.262-6.397-14.262-14.262V161.729zM131.2 228.58h54.161c2.209 0 4-1.791 4-4s-1.791-4-4-4H131.2c-2.209 0-4 1.791-4 4S128.991 228.58 131.2 228.58zM303.386 220.58H212.91c-2.209 0-4 1.791-4 4s1.791 4 4 4h90.476c2.209 0 4-1.791 4-4S305.595 220.58 303.386 220.58zM189.361 264.339c0-2.209-1.791-4-4-4H131.2c-2.209 0-4 1.791-4 4s1.791 4 4 4h54.161C187.57 268.339 189.361 266.548 189.361 264.339zM303.386 260.339H212.91c-2.209 0-4 1.791-4 4s1.791 4 4 4h90.476c2.209 0 4-1.791 4-4S305.595 260.339 303.386 260.339zM251.894 361.948c0 2.209 1.791 4 4 4s4-1.791 4-4c0-15.377-16.657-27.604-38.601-28.939v-15.022c0-2.209-1.791-4-4-4s-4 1.791-4 4v15.022c-21.944 1.335-38.601 13.562-38.601 28.939s16.657 27.605 38.601 28.94v42.105c-16.954-1.252-30.601-10.317-30.601-20.914 0-2.209-1.791-4-4-4s-4 1.791-4 4c0 15.377 16.657 27.605 38.601 28.94v15.021c0 2.209 1.791 4 4 4s4-1.791 4-4V441.02c21.943-1.335 38.601-13.563 38.601-28.94s-16.657-27.604-38.601-28.939v-42.105C238.247 342.287 251.894 351.352 251.894 361.948zM182.692 361.948c0-10.596 13.647-19.661 30.601-20.913v41.826C196.34 381.61 182.692 372.545 182.692 361.948zM251.894 412.08c0 10.596-13.647 19.662-30.601 20.914v-41.826C238.247 392.419 251.894 401.484 251.894 412.08zM154.355 95.8c2.209 0 4-1.791 4-4V68.961h14.837c9.605 0 17.419-7.814 17.419-17.42s-7.814-17.42-17.419-17.42h-18.837c-2.209 0-4 1.791-4 4V91.8C150.355 94.009 152.146 95.8 154.355 95.8zM158.355 42.121h14.837c5.194 0 9.419 4.226 9.419 9.42s-4.226 9.42-9.419 9.42h-14.837V42.121zM192.118 95.524c.479.188.972.276 1.457.276 1.598 0 3.108-.965 3.726-2.543l5.707-14.579h23.162l5.707 14.579c.805 2.058 3.125 3.072 5.183 2.267 2.057-.805 3.072-3.126 2.267-5.183l-21.013-53.679c-.6-1.533-2.078-2.542-3.725-2.542s-3.125 1.009-3.725 2.542l-21.013 53.679C189.045 92.398 190.061 94.72 192.118 95.524zM214.588 49.095l8.45 21.584h-16.899L214.588 49.095zM257.132 66.239V91.8c0 2.209 1.791 4 4 4s4-1.791 4-4v-25.56l18.359-25.799c1.281-1.8.86-4.298-.94-5.578-1.801-1.282-4.297-.861-5.579.939l-15.84 22.26-15.84-22.26c-1.282-1.801-3.779-2.222-5.579-.939-1.8 1.28-2.221 3.778-.94 5.578L257.132 66.239zM35.834 202.307c0 8.167 6.645 14.811 14.812 14.811s14.811-6.644 14.811-14.811-6.644-14.812-14.811-14.812S35.834 194.14 35.834 202.307zM57.457 202.307c0 3.755-3.056 6.811-6.811 6.811-3.756 0-6.812-3.056-6.812-6.811 0-3.756 3.056-6.812 6.812-6.812C54.401 195.495 57.457 198.551 57.457 202.307zM383.306 83.322c8.167 0 14.811-6.644 14.811-14.811S391.473 53.7 383.306 53.7s-14.812 6.645-14.812 14.812S375.139 83.322 383.306 83.322zM383.306 61.7c3.755 0 6.811 3.056 6.811 6.812 0 3.755-3.056 6.811-6.811 6.811-3.756 0-6.812-3.056-6.812-6.811C376.494 64.756 379.55 61.7 383.306 61.7zM459.225 247.365c0 8.167 6.644 14.812 14.811 14.812s14.811-6.645 14.811-14.812-6.644-14.811-14.811-14.811S459.225 239.198 459.225 247.365zM474.036 240.555c3.755 0 6.811 3.056 6.811 6.811 0 3.756-3.056 6.812-6.811 6.812s-6.811-3.056-6.811-6.812C467.225 243.61 470.281 240.555 474.036 240.555zM37.607 106.616h14.388v14.388c0 2.209 1.791 4 4 4s4-1.791 4-4v-14.388h14.387c2.209 0 4-1.791 4-4s-1.791-4-4-4H59.995V84.229c0-2.209-1.791-4-4-4s-4 1.791-4 4v14.388H37.607c-2.209 0-4 1.791-4 4S35.398 106.616 37.607 106.616zM372.494 222.167h14.388v14.388c0 2.209 1.791 4 4 4s4-1.791 4-4v-14.388h14.388c2.209 0 4-1.791 4-4s-1.791-4-4-4h-14.388v-14.388c0-2.209-1.791-4-4-4s-4 1.791-4 4v14.388h-14.388c-2.209 0-4 1.791-4 4S370.285 222.167 372.494 222.167zM500 29.263h-14.388V14.876c0-2.209-1.791-4-4-4s-4 1.791-4 4v14.387h-14.387c-2.209 0-4 1.791-4 4s1.791 4 4 4h14.387V51.65c0 2.209 1.791 4 4 4s4-1.791 4-4V37.263H500c2.209 0 4-1.791 4-4S502.209 29.263 500 29.263zM394.727 136.34c0 1.806 1.21 3.388 2.953 3.86 20.458 5.549 31.084 18.458 32.485 39.465.14 2.102 1.885 3.734 3.991 3.734s3.851-1.633 3.991-3.734c1.4-21.007 12.026-33.916 32.485-39.465 1.743-.473 2.953-2.055 2.953-3.86s-1.21-3.388-2.953-3.86c-20.459-5.55-31.085-18.459-32.485-39.466-.14-2.102-1.885-3.734-3.991-3.734s-3.851 1.633-3.991 3.734c-1.4 21.007-12.026 33.916-32.485 39.466C395.937 132.952 394.727 134.534 394.727 136.34zM434.156 111.979c4.416 10.936 12.329 19.08 23.674 24.36-11.346 5.279-19.258 13.424-23.674 24.359-4.416-10.936-12.329-19.08-23.674-24.359C421.827 131.06 429.74 122.915 434.156 111.979zM75.906 365.088c-20.459-5.55-31.085-18.459-32.485-39.465-.14-2.102-1.885-3.734-3.991-3.734s-3.851 1.633-3.991 3.734c-1.4 21.006-12.026 33.915-32.485 39.465C1.21 365.561 0 367.143 0 368.948s1.21 3.388 2.953 3.86c20.459 5.55 31.085 18.459 32.485 39.466.14 2.102 1.885 3.734 3.991 3.734s3.851-1.633 3.991-3.734c1.4-21.007 12.026-33.916 32.485-39.466 1.743-.473 2.953-2.055 2.953-3.86S77.648 365.561 75.906 365.088zM39.429 393.309c-4.416-10.936-12.329-19.081-23.675-24.36 11.346-5.279 19.259-13.425 23.675-24.359 4.416 10.935 12.329 19.08 23.675 24.359C51.758 374.228 43.845 382.373 39.429 393.309z"/></svg>